<svg width="6" height="6" viewBox="0 0 6 6" fill="none" xmlns="http://www.w3.org/2000/svg">
<path fill-rule="evenodd" clip-rule="evenodd" d="M2.97082 2.34216L5.17071 0.142276C5.34427 -0.0312902 5.62568 -0.0312902 5.79925 0.142276C5.97281 0.315842 5.97281 0.597249 5.79925 0.770815L3.59936 2.9707L5.79925 5.17059C5.97281 5.34416 5.97281 5.62556 5.79925 5.79913C5.62568 5.9727 5.34427 5.9727 5.17071 5.79913L2.97082 3.59924L0.770931 5.79913C0.597365 5.9727 0.315958 5.9727 0.142392 5.79913C-0.0311744 5.62556 -0.0311744 5.34416 0.142392 5.17059L2.34228 2.9707L0.142392 0.770815C-0.0311744 0.597249 -0.0311744 0.315842 0.142392 0.142276C0.315958 -0.0312904 0.597365 -0.0312905 0.770931 0.142276L2.97082 2.34216Z" fill="#FE805C"/>
</svg>
