<svg width="15" height="20" viewBox="0 0 15 20" fill="none" xmlns="http://www.w3.org/2000/svg">
<path d="M12.1428 0H2.1428C1.76392 0 1.40056 0.15051 1.13265 0.418419C0.864743 0.686328 0.714233 1.04969 0.714233 1.42857V18.5714C0.714233 18.9503 0.864743 19.3137 1.13265 19.5816C1.40056 19.8495 1.76392 20 2.1428 20H12.1428C12.5217 20 12.885 19.8495 13.153 19.5816C13.4209 19.3137 13.5714 18.9503 13.5714 18.5714V1.42857C13.5714 1.04969 13.4209 0.686328 13.153 0.418419C12.885 0.15051 12.5217 0 12.1428 0ZM7.85709 18.5714H6.42852V17.1429H7.85709V18.5714ZM2.1428 15.7143V1.42857H12.1428V15.7143H2.1428Z" fill="#0D006A"/>
</svg>
