<svg width="8" height="10" viewBox="0 0 8 10" fill="none" xmlns="http://www.w3.org/2000/svg">
<path d="M7.33329 3.125C7.33329 2.2962 6.9821 1.50134 6.35698 0.915291C5.73186 0.32924 4.88401 0 3.99996 0C3.1159 0 2.26806 0.32924 1.64294 0.915291C1.01782 1.50134 0.666626 2.2962 0.666626 3.125C0.666626 3.29076 0.736864 3.44973 0.861888 3.56694C0.986912 3.68415 1.15648 3.75 1.33329 3.75C1.5101 3.75 1.67967 3.68415 1.8047 3.56694C1.92972 3.44973 1.99996 3.29076 1.99996 3.125C1.99996 2.75416 2.11726 2.39165 2.33702 2.08331C2.55678 1.77496 2.86914 1.53464 3.23459 1.39273C3.60004 1.25081 4.00218 1.21368 4.39014 1.28603C4.7781 1.35838 5.13447 1.53695 5.41417 1.79917C5.69388 2.0614 5.88436 2.39549 5.96153 2.75921C6.0387 3.12292 5.99909 3.49992 5.84772 3.84253C5.69634 4.18514 5.44 4.47798 5.1111 4.68401C4.7822 4.89003 4.39552 5 3.99996 5C3.82315 5 3.65358 5.06585 3.52855 5.18306C3.40353 5.30027 3.33329 5.45924 3.33329 5.625V6.875C3.33329 7.04076 3.40353 7.19973 3.52855 7.31694C3.65358 7.43415 3.82315 7.5 3.99996 7.5C4.17677 7.5 4.34634 7.43415 4.47136 7.31694C4.59639 7.19973 4.66663 7.04076 4.66663 6.875V6.1875C5.41954 6.04342 6.09622 5.65989 6.58216 5.10181C7.0681 4.54374 7.33345 3.84541 7.33329 3.125Z" fill="#4643D3"/>
<path d="M4.00016 10C4.36835 10 4.66683 9.72018 4.66683 9.375C4.66683 9.02982 4.36835 8.75 4.00016 8.75C3.63197 8.75 3.3335 9.02982 3.3335 9.375C3.3335 9.72018 3.63197 10 4.00016 10Z" fill="#4643D3"/>
</svg>
